<?xml version="1.0" encoding="UTF-8" standalone="no"?>
<!DOCTYPE svg PUBLIC "-//W3C//DTD SVG 1.1//EN" "http://www.w3.org/Graphics/SVG/1.1/DTD/svg11.dtd">
<!-- Created with Vectornator (http://vectornator.io/) -->
<svg height="100%" stroke-miterlimit="10" style="fill-rule:nonzero;clip-rule:evenodd;stroke-linecap:round;stroke-linejoin:round;" version="1.1" viewBox="0 0 1024 1024" width="100%" xml:space="preserve" xmlns="http://www.w3.org/2000/svg" xmlns:vectornator="http://vectornator.io" xmlns:xlink="http://www.w3.org/1999/xlink">
<defs/>
<g id="Layer-1" vectornator:layerName="Layer 1">
<path d="M462.241 411.633C463.95 411.633 465.171 410.9 465.415 408.947C471.518 369.885 472.495 367.687 513.755 360.607C515.708 360.119 516.928 359.142 516.928 357.189C516.928 355.48 515.708 354.26 513.755 354.015C472.495 345.715 474.448 343.762 465.415 305.431C465.171 303.722 463.95 302.746 462.241 302.746C460.532 302.746 459.555 303.722 459.311 305.431C450.278 343.762 452.719 345.715 410.971 354.015C409.018 354.26 407.797 355.48 407.797 357.189C407.797 359.142 409.018 360.119 410.971 360.607C452.719 368.908 452.719 369.885 459.311 408.947C459.555 410.9 460.532 411.633 462.241 411.633ZM402.671 764.904C485.434 764.904 552.085 725.597 582.602 657.482C585.776 650.402 585.288 644.299 581.87 640.881C578.696 637.463 573.325 636.73 566.489 639.172C548.422 646.252 527.671 650.646 500.083 650.646C394.126 650.646 327.231 585.949 327.231 478.771C327.231 453.625 331.626 427.502 340.415 408.703C344.077 401.379 343.588 395.275 340.171 391.613C336.508 387.707 330.161 386.73 321.372 390.881C255.942 421.887 210.532 490.002 210.532 572.765C210.532 680.676 286.215 764.904 402.671 764.904ZM572.348 559.582C575.034 559.582 577.231 557.629 577.475 554.699C586.508 492.931 587.485 493.42 650.229 481.945C653.159 481.457 655.356 479.748 655.356 476.818C655.356 473.889 653.159 472.18 650.717 471.691C587.973 459.484 586.508 460.949 577.475 398.937C577.231 396.008 575.034 394.055 572.348 394.055C569.663 394.055 567.71 396.008 567.221 398.937C557.944 460.949 557.944 460.705 494.223 471.691C491.538 472.18 489.585 473.889 489.585 476.818C489.585 479.748 491.538 481.457 494.223 481.945C557.944 494.396 557.944 493.176 567.221 554.943C567.71 557.629 569.663 559.582 572.348 559.582ZM402.915 742.931C299.399 742.931 232.505 667.248 232.505 571.545C232.505 505.627 267.905 449.23 317.465 416.027C310.141 432.629 305.747 458.264 305.747 483.41C305.747 599.133 380.698 672.131 496.176 672.131C520.102 672.131 542.563 667.98 556.235 662.853C527.426 712.17 469.565 742.931 402.915 742.931Z" fill="#f6dda7" fill-rule="nonzero" opacity="0" stroke="none"/>
<path d="M752.446 954.676C758.613 954.676 763.018 952.033 763.899 944.985C785.924 804.025 789.448 796.096 938.337 770.547C945.385 768.785 949.79 765.261 949.79 758.213C949.79 752.046 945.385 747.641 938.337 746.76C789.448 716.806 796.496 709.758 763.899 571.441C763.018 565.274 758.613 561.75 752.446 561.75C746.279 561.75 742.755 565.274 741.874 571.441C709.277 709.758 718.087 716.806 567.436 746.76C560.388 747.641 555.983 752.046 555.983 758.213C555.983 765.261 560.388 768.785 567.436 770.547C718.087 800.501 718.087 804.025 741.874 944.985C742.755 952.033 746.279 954.676 752.446 954.676Z" fill="#ffd785" fill-rule="nonzero" opacity="1" stroke="none"/>
<path d="M431.754 784.412C443.356 784.412 452.848 775.974 453.903 763.318C492.927 496.478 497.146 498.587 768.204 449.016C780.861 446.907 790.353 439.524 790.353 426.868C790.353 414.211 780.861 406.828 770.314 404.719C499.255 351.984 492.927 358.312 453.903 90.4177C452.848 77.7613 443.356 69.3236 431.754 69.3236C420.152 69.3236 411.715 77.7613 409.605 90.4177C369.527 358.312 369.527 357.257 94.2494 404.719C82.6476 406.828 74.21 414.211 74.21 426.868C74.21 439.524 82.6476 446.907 94.2494 449.016C369.527 502.806 369.527 497.533 409.605 764.372C411.715 775.974 420.152 784.412 431.754 784.412Z" fill="#ffd785" fill-rule="nonzero" opacity="0" stroke="none"/>
</g>
</svg>
