<?xml version="1.0" encoding="UTF-8" standalone="no"?>
<!DOCTYPE svg PUBLIC "-//W3C//DTD SVG 1.1//EN" "http://www.w3.org/Graphics/SVG/1.1/DTD/svg11.dtd">
<!-- Created with Vectornator (http://vectornator.io/) -->
<svg height="100%" stroke-miterlimit="10" style="fill-rule:nonzero;clip-rule:evenodd;stroke-linecap:round;stroke-linejoin:round;" version="1.1" viewBox="0 0 285.77 285.77" width="100%" xml:space="preserve" xmlns="http://www.w3.org/2000/svg" xmlns:vectornator="http://vectornator.io" xmlns:xlink="http://www.w3.org/1999/xlink">
<defs/>
<g id="Untitled" vectornator:layerName="Untitled">
<path d="M46.8575 17.885L238.913 17.885C254.914 17.885 267.885 30.8564 267.885 46.8575L267.885 238.913C267.885 254.914 254.914 267.885 238.913 267.885L46.8575 267.885C30.8564 267.885 17.885 254.914 17.885 238.913L17.885 46.8575C17.885 30.8564 30.8564 17.885 46.8575 17.885Z" fill="#8abfe8" fill-rule="nonzero" opacity="0" stroke="#8abfe8" stroke-linecap="butt" stroke-linejoin="miter" stroke-width="8"/>
<path d="M46.8438 17.875C30.8427 17.875 17.875 30.8427 17.875 46.8438L17.875 68.4674L267.875 68.4674L267.875 46.8438C267.875 30.8427 254.907 17.875 238.906 17.875L46.8438 17.875Z" fill="#8abfe8" fill-rule="nonzero" opacity="0" stroke="#8abfe8" stroke-linecap="butt" stroke-linejoin="miter" stroke-width="8"/>
<path d="M53.8171 35.8329C58.5138 40.5295 58.5138 48.1441 53.8171 52.8426C49.1202 57.5392 41.5052 57.5392 36.8084 52.8426C32.1117 48.1441 32.1117 40.5295 36.8084 35.8329C41.5052 31.1364 49.1202 31.1364 53.8171 35.8329Z" fill="#ffffff" fill-rule="nonzero" opacity="0" stroke="#ffffff" stroke-linecap="butt" stroke-linejoin="miter" stroke-width="8"/>
<path d="M158.094 22.8438C157.206 22.8438 156.721 23.3623 156.594 24.25C151.901 44.1605 153.155 45.1569 131.469 49.4688C130.454 49.5956 129.813 50.2373 129.812 51.125C129.812 52.1395 130.454 52.6526 131.469 52.9062C153.155 57.2181 153.17 57.7403 156.594 78.0312C156.721 79.0458 157.206 79.4063 158.094 79.4062C158.981 79.4062 159.623 79.0458 159.75 78.0312C162.92 57.7403 163.443 56.584 184.875 52.9062C185.89 52.6526 186.5 52.1396 186.5 51.125C186.5 50.2373 185.89 49.5956 184.875 49.4688C163.443 45.1569 164.442 44.1605 159.75 24.25C159.623 23.3623 158.981 22.8438 158.094 22.8438ZM90.8125 67.25C89.1797 67.139 87.2202 67.547 84.9375 68.625C50.9501 84.731 27.3438 120.133 27.3438 163.125C27.3438 219.179 66.6638 262.906 127.156 262.906C170.148 262.906 204.773 242.507 220.625 207.125C222.274 203.447 222.026 200.275 220.25 198.5C218.601 196.725 215.801 196.326 212.25 197.594C202.865 201.271 192.081 203.563 177.75 203.562C122.711 203.562 87.9687 169.955 87.9688 114.281C87.9688 101.219 90.247 87.64 94.8125 77.875C96.7148 74.0704 96.463 70.9023 94.6875 69C93.7364 67.9855 92.4453 67.361 90.8125 67.25ZM215.312 70.2812C213.917 70.2812 212.879 71.2907 212.625 72.8125C207.806 105.024 207.818 104.918 174.719 110.625C173.324 110.879 172.313 111.759 172.312 113.281C172.312 114.803 173.324 115.684 174.719 115.938C207.818 122.405 207.806 121.759 212.625 153.844C212.879 155.239 213.918 156.25 215.312 156.25C216.708 156.25 217.842 155.241 217.969 153.719C222.661 121.634 223.158 121.898 255.75 115.938C257.272 115.684 258.406 114.803 258.406 113.281C258.406 111.759 257.268 110.879 256 110.625C223.408 104.284 222.661 105.024 217.969 72.8125C217.842 71.2907 216.708 70.2812 215.312 70.2812Z" fill="#ffffff" fill-rule="nonzero" opacity="0" stroke="none"/>
<path d="M41.7812 11.25C24.9321 11.25 11.25 24.9321 11.25 41.7812L11.25 244C11.25 260.849 24.9321 274.5 41.7812 274.5L244 274.5C260.849 274.5 274.5 260.849 274.5 244L274.5 41.7812C274.5 24.9321 260.849 11.25 244 11.25L41.7812 11.25ZM158.094 22.8438C158.981 22.8438 159.623 23.3623 159.75 24.25C164.442 44.1605 163.443 45.1569 184.875 49.4688C185.89 49.5956 186.5 50.2373 186.5 51.125C186.5 52.1396 185.89 52.6526 184.875 52.9062C163.443 56.584 162.92 57.7403 159.75 78.0312C159.623 79.0458 158.981 79.4062 158.094 79.4062C157.206 79.4063 156.721 79.0458 156.594 78.0312C153.17 57.7403 153.155 57.2181 131.469 52.9062C130.454 52.6526 129.812 52.1395 129.812 51.125C129.813 50.2373 130.454 49.5956 131.469 49.4688C153.155 45.1569 151.901 44.1605 156.594 24.25C156.721 23.3623 157.206 22.8438 158.094 22.8438ZM90.8125 67.25C92.4453 67.361 93.7364 67.9855 94.6875 69C96.463 70.9023 96.7148 74.0704 94.8125 77.875C90.247 87.64 87.9688 101.219 87.9688 114.281C87.9687 169.955 122.711 203.562 177.75 203.562C192.081 203.563 202.865 201.271 212.25 197.594C215.801 196.326 218.601 196.725 220.25 198.5C222.025 200.276 222.274 203.447 220.625 207.125C204.773 242.507 170.148 262.906 127.156 262.906C66.6638 262.906 27.3438 219.179 27.3438 163.125C27.3438 120.133 50.9501 84.731 84.9375 68.625C87.2202 67.547 89.1797 67.139 90.8125 67.25ZM215.312 70.2812C216.708 70.2812 217.842 71.2907 217.969 72.8125C222.661 105.024 223.408 104.284 256 110.625C257.268 110.879 258.406 111.759 258.406 113.281C258.406 114.803 257.272 115.684 255.75 115.938C223.158 121.898 222.661 121.634 217.969 153.719C217.842 155.241 216.708 156.25 215.312 156.25C213.918 156.25 212.879 155.239 212.625 153.844C207.806 121.759 207.818 122.405 174.719 115.938C173.324 115.684 172.312 114.803 172.312 113.281C172.313 111.759 173.324 110.879 174.719 110.625C207.818 104.918 207.806 105.024 212.625 72.8125C212.879 71.2907 213.917 70.2812 215.312 70.2812Z" fill="#8abfe8" fill-rule="nonzero" opacity="1" stroke="none"/>
<path d="M41.7812 11.25C24.9321 11.25 11.25 24.9321 11.25 41.7812L11.25 244C11.25 260.849 24.9321 274.5 41.7812 274.5L244 274.5C260.849 274.5 274.5 260.849 274.5 244L274.5 41.7812C274.5 24.9321 260.849 11.25 244 11.25L41.7812 11.25ZM109.16 45.0657C110.792 45.1766 112.083 45.8011 113.035 46.8157C114.81 48.718 115.062 51.8861 113.16 55.6907C108.594 65.4557 106.316 79.0346 106.316 92.0969C106.316 147.77 141.058 181.378 196.097 181.378C210.428 181.378 221.212 179.087 230.597 175.409C234.148 174.141 236.948 174.54 238.597 176.316C240.373 178.091 240.621 181.263 238.972 184.941C223.12 220.323 188.495 240.722 145.503 240.722C85.0109 240.722 45.6908 196.994 45.6908 140.941C45.6908 97.9492 69.2972 62.5466 103.285 46.4407C105.567 45.3627 107.527 44.9547 109.16 45.0657Z" fill="#8abfe8" fill-rule="nonzero" opacity="0" stroke="none"/>
<path d="M101.724 23.4982C103.716 23.6337 105.292 24.3958 106.453 25.6341C108.62 27.9558 108.927 31.8225 106.606 36.4659C101.034 48.3839 98.2529 64.9567 98.2529 80.8991C98.2529 148.847 140.655 189.865 207.829 189.865C225.32 189.865 238.482 187.069 249.936 182.58C254.27 181.033 257.688 181.52 259.7 183.687C261.867 185.854 262.17 189.725 260.158 194.213C240.81 237.397 198.551 262.293 146.081 262.293C72.2506 262.293 24.2612 208.925 24.2612 140.512C24.2612 88.0416 53.0724 44.8334 94.5533 25.1764C97.3394 23.8608 99.7309 23.3628 101.724 23.4982Z" fill="#8abfe8" fill-rule="nonzero" opacity="0" stroke="none"/>
</g>
</svg>
