<?xml version="1.0" encoding="UTF-8" standalone="no"?>
<!DOCTYPE svg PUBLIC "-//W3C//DTD SVG 1.1//EN" "http://www.w3.org/Graphics/SVG/1.1/DTD/svg11.dtd">
<!-- Created with Vectornator (http://vectornator.io/) -->
<svg height="100%" stroke-miterlimit="10" style="fill-rule:nonzero;clip-rule:evenodd;stroke-linecap:round;stroke-linejoin:round;" version="1.1" viewBox="0 0 285.77 285.77" width="100%" xml:space="preserve" xmlns="http://www.w3.org/2000/svg" xmlns:vectornator="http://vectornator.io" xmlns:xlink="http://www.w3.org/1999/xlink">
<defs/>
<g id="Untitled" vectornator:layerName="Untitled">
<path d="M46.8575 17.885L238.913 17.885C254.914 17.885 267.885 30.8564 267.885 46.8575L267.885 238.913C267.885 254.914 254.914 267.885 238.913 267.885L46.8575 267.885C30.8564 267.885 17.885 254.914 17.885 238.913L17.885 46.8575C17.885 30.8564 30.8564 17.885 46.8575 17.885Z" fill="#ffffff" fill-rule="nonzero" opacity="1" stroke="#8abfe8" stroke-linecap="butt" stroke-linejoin="miter" stroke-width="8"/>
<path d="M46.8438 17.875C30.8427 17.875 17.875 30.8427 17.875 46.8438L17.875 68.4674L267.875 68.4674L267.875 46.8438C267.875 30.8427 254.907 17.875 238.906 17.875L46.8438 17.875Z" fill="#8abfe8" fill-rule="nonzero" opacity="1" stroke="#8abfe8" stroke-linecap="butt" stroke-linejoin="miter" stroke-width="8"/>
<path d="M53.8171 35.8329C58.5138 40.5295 58.5138 48.1441 53.8171 52.8426C49.1202 57.5392 41.5052 57.5392 36.8084 52.8426C32.1117 48.1441 32.1117 40.5295 36.8084 35.8329C41.5052 31.1364 49.1202 31.1364 53.8171 35.8329Z" fill="#ffffff" fill-rule="nonzero" opacity="1" stroke="#ffffff" stroke-linecap="butt" stroke-linejoin="miter" stroke-width="8"/>
</g>
</svg>
